<svg xmlns="http://www.w3.org/2000/svg" viewBox="0 0 306 306"><defs><style>.cls-3{fill:#3c4043}.cls-4{fill:#fff}.cls-5{fill:none}.cls-6{fill:#d1e2fb}.cls-7{opacity:.4}</style></defs><g id="Final"><circle cx="153" cy="153" r="151.62" fill="#edf3fe"/><path d="M246.18 219.62S190.7 193.54 190.7 99.76h-111c0 93.78 55.49 119.86 55.49 119.86z" fill="#4283f2"/><path class="cls-3" d="M245.76 220.52c-.58-.27-14.25-6.83-28.12-25.06-12.64-16.65-27.74-46.56-27.94-94.7h-110v-2h112v1c0 48.09 14.93 77.87 27.46 94.39 13.56 17.88 27.31 24.5 27.45 24.56z"/><path class="cls-3" transform="rotate(-49.05 216.886 133.313)" d="M158.91 126.38h115.97v13.87H158.91z"/><path class="cls-3" d="M184.23 183.07l-12-10.4.66-.76 76.66-88.34 12 10.4-.65.76zm-9.17-10.6l9 7.78 74.7-86.08-9-7.78z"/><path class="cls-4" d="M172.73 174.18l-12.95 22.68a1.52 1.52 0 002.25 2l20.64-16a1.53 1.53 0 00.06-2.35l-7.68-6.67a1.52 1.52 0 00-2.32.34z"/><path class="cls-4" d="M161.1 200.14a2.53 2.53 0 01-2.19-3.77l13-22.69a2.45 2.45 0 011.76-1.23 2.5 2.5 0 012.08.58l7.68 6.66a2.54 2.54 0 01-.11 3.9l-20.64 16a2.48 2.48 0 01-1.58.55zm12.5-25.47l-12.95 22.69a.48.48 0 00.11.65.5.5 0 00.66 0l20.63-16a.52.52 0 00.2-.4.49.49 0 00-.17-.41l-7.68-6.66a.51.51 0 00-.43-.12.52.52 0 00-.37.25z"/><path class="cls-5" d="M153.4 1.38A151.69 151.69 0 0012.67 209.51h60A21.51 21.51 0 0194.17 231v17.29a21.5 21.5 0 01-21.48 21.47h-16A151.62 151.62 0 10153.4 1.38z"/><path class="cls-6" d="M92.17 248.28V231a19.5 19.5 0 00-19.48-19.48h-59.2a151.92 151.92 0 0040.81 56.23h18.39a19.5 19.5 0 0019.48-19.47z"/><path class="cls-6" d="M94.17 248.28V231a21.51 21.51 0 00-21.48-21.48h-60c.27.67.54 1.34.82 2h59.2A19.5 19.5 0 0192.17 231v17.29a19.5 19.5 0 01-19.48 19.47H54.3c.78.68 1.57 1.34 2.37 2h16a21.5 21.5 0 0021.5-21.48z"/><g class="cls-7"><path class="cls-5" d="M199.16 261.57a11.73 11.73 0 0111.71-11.72h59.18a151.2 151.2 0 10-70.89 47.74z"/><path class="cls-6" d="M201.16 261.57v35.37a151.79 151.79 0 0067.2-45.09h-57.49a9.72 9.72 0 00-9.71 9.72z"/><path class="cls-6" d="M199.16 261.57v36l2-.65v-35.35a9.72 9.72 0 019.71-9.72h57.49c.57-.66 1.13-1.32 1.69-2h-59.18a11.73 11.73 0 00-11.71 11.72z"/></g><g class="cls-7"><path class="cls-5" d="M268.24 54a66 66 0 01-48.71 21.46A66.21 66.21 0 01153.4 9.34a67.2 67.2 0 01.49-7.95h-.49A151.63 151.63 0 10268.24 54z"/><path class="cls-6" d="M219.53 73.47a64 64 0 0047.38-21 151.22 151.22 0 00-111-51.09 62.87 62.87 0 00-.51 7.93 64.2 64.2 0 0064.13 64.16z"/><path class="cls-6" d="M219.53 75.47A66 66 0 00268.24 54c-.44-.51-.88-1-1.33-1.51a64 64 0 01-47.38 21A64.2 64.2 0 01155.4 9.34a62.87 62.87 0 01.51-7.93h-2a67.2 67.2 0 00-.49 8 66.21 66.21 0 0066.11 66.06z"/></g></g></svg>