<svg xmlns="http://www.w3.org/2000/svg" viewBox="0 0 306 306"><defs><style>.cls-2{fill:#e84335}.cls-3{fill:#fff}.cls-5{opacity:.4}.cls-6{fill:none}.cls-7{fill:#d1e2fb}</style></defs><g id="Final"><circle cx="153" cy="153" r="151.62" fill="#edf3fe"/><rect class="cls-2" x="99.58" y="102.54" width="100.91" height="100.91" rx="11.95"/><circle class="cls-3" cx="150.03" cy="153" r="19.53"/><path class="cls-3" d="M150 173.54A20.54 20.54 0 11170.57 153 20.56 20.56 0 01150 173.54z"/><path class="cls-3" d="M150 134.47A18.54 18.54 0 10168.57 153 18.55 18.55 0 00150 134.47z"/><path class="cls-2" d="M200.49 140.59v24.82l30.34 29a5.62 5.62 0 009.5-4.07v-74.66a5.62 5.62 0 00-9.5-4.06z"/><path d="M201.49 191.51h-2v-77a11 11 0 00-11-10.95H150v-2h38.51a13 13 0 0113 12.95z" fill="#3c4043"/><g class="cls-5"><path class="cls-6" d="M281.26 124a15.38 15.38 0 01-15.38-15.38V51.78a151.25 151.25 0 1036 72.22z"/><path class="cls-7" d="M281.26 124h20.58a151.24 151.24 0 00-36-72.22v56.84A15.38 15.38 0 00281.26 124z"/></g><path class="cls-6" d="M153 1.38c-1.94 0-3.87.05-5.8.12v37.76a16.07 16.07 0 01-16.07 16.07H37A151.61 151.61 0 10153 1.38z"/><path class="cls-7" d="M147.2 39.26V1.5A151.28 151.28 0 0037 55.33h94.09a16.07 16.07 0 0016.11-16.07z"/><g class="cls-5"><path class="cls-6" d="M153 1.38A151.62 151.62 0 001.47 148h68a15 15 0 0115 15v59a15 15 0 01-15 15h-42.7A151.62 151.62 0 10153 1.38z"/><path class="cls-7" d="M84.53 222v-59a15 15 0 00-15-15h-68c-.05 1.66-.09 3.33-.09 5a150.9 150.9 0 0025.39 84H69.5a15 15 0 0015.03-15z"/></g><path class="cls-6" d="M175.21 256.79A12.78 12.78 0 01188 244h86.28A151.62 151.62 0 10153 304.62a153.5 153.5 0 0022.21-1.62z"/><path class="cls-7" d="M175.21 256.79V303a151.53 151.53 0 0099.06-59H188a12.78 12.78 0 00-12.79 12.79z"/></g></svg>